<svg version="1.2" xmlns="http://www.w3.org/2000/svg" viewBox="0 0 48 48" width="48" height="48">
	<style>
		.s0 { fill: #ff2c00 } 
	</style>
	<path class="s0" d="m5.38 27c-1.87 0-3.38-1.51-3.38-3.38 0-1.87 1.51-3.38 3.38-3.38 1.88 0 3.39 1.51 3.39 3.38 0 1.87-1.51 3.38-3.39 3.38z"/>
	<path class="s0" d="m5.38 34.57c-1.05 0-1.9-0.85-1.9-1.91 0-1.05 0.85-1.9 1.9-1.9 1.06 0 1.91 0.85 1.91 1.9 0 1.06-0.85 1.91-1.91 1.91z"/>
	<path class="s0" d="m5.38 16.39c-1.05 0-1.9-0.85-1.9-1.91 0-1.05 0.85-1.9 1.9-1.9 1.06 0 1.91 0.85 1.91 1.9 0 1.06-0.85 1.91-1.91 1.91z"/>
	<path class="s0" d="m14.45 7.27c-1.06 0-1.91-0.85-1.91-1.9 0-1.06 0.85-1.91 1.91-1.91 1.05 0 1.9 0.85 1.9 1.91 0 1.05-0.85 1.9-1.9 1.9z"/>
	<path class="s0" d="m14.45 18.44c-2.19 0-3.96-1.77-3.96-3.96 0-2.18 1.77-3.95 3.96-3.95 2.19 0 3.95 1.77 3.95 3.95 0 2.19-1.76 3.96-3.95 3.96z"/>
	<path class="s0" d="m14.45 36.62c-2.19 0-3.96-1.77-3.96-3.96 0-2.18 1.77-3.95 3.96-3.95 2.19 0 3.95 1.77 3.95 3.95 0 2.19-1.76 3.96-3.95 3.96z"/>
	<path class="s0" d="m32.53 18.96c-1.64 0-3.08 0.85-3.92 2.14-0.57-1.14-1.51-2.09-2.66-2.64 1.33-0.83 2.22-2.29 2.22-3.98 0-2.59-2.11-4.69-4.7-4.69-2.59 0-4.7 2.1-4.7 4.69 0 1.69 0.89 3.17 2.22 3.98-1.14 0.55-2.09 1.48-2.66 2.63-0.83-1.28-2.27-2.13-3.9-2.13-2.57 0-4.66 2.09-4.66 4.66 0 2.57 2.09 4.66 4.66 4.66 1.64 0 3.07-0.85 3.9-2.13 0.56 1.11 1.46 2.02 2.57 2.59-1.29 0.84-2.14 2.28-2.14 3.94 0 2.59 2.1 4.7 4.69 4.7 2.59 0 4.7-2.11 4.7-4.7 0-1.64-0.85-3.09-2.14-3.94 1.12-0.55 2.03-1.48 2.59-2.6 0.83 1.29 2.27 2.14 3.92 2.14 2.57 0 4.66-2.09 4.66-4.66 0-2.57-2.09-4.66-4.66-4.66z"/>
	<path class="s0" d="m41.6 27c-1.87 0-3.39-1.51-3.39-3.38 0-1.87 1.52-3.38 3.39-3.38 1.87 0 3.38 1.51 3.38 3.38 0 1.87-1.51 3.38-3.38 3.38z"/>
	<path class="s0" d="m41.6 16.39c-1.06 0-1.91-0.85-1.91-1.91 0-1.05 0.85-1.9 1.91-1.9 1.05 0 1.9 0.85 1.9 1.9 0 1.06-0.85 1.91-1.9 1.91z"/>
	<path class="s0" d="m41.6 34.57c-1.06 0-1.91-0.85-1.91-1.91 0-1.05 0.85-1.9 1.91-1.9 1.05 0 1.9 0.85 1.9 1.9 0 1.06-0.85 1.91-1.9 1.91z"/>
	<path class="s0" d="m32.53 7.27c-1.05 0-1.9-0.85-1.9-1.9 0-1.06 0.85-1.91 1.9-1.91 1.06 0 1.91 0.85 1.91 1.91 0 1.05-0.85 1.9-1.91 1.9z"/>
	<path class="s0" d="m32.53 36.62c-2.18 0-3.95-1.77-3.95-3.96 0-2.18 1.77-3.95 3.95-3.95 2.19 0 3.96 1.77 3.96 3.95 0 2.19-1.77 3.96-3.96 3.96z"/>
	<path class="s0" d="m32.53 18.44c-2.18 0-3.95-1.77-3.95-3.96 0-2.18 1.77-3.95 3.95-3.95 2.19 0 3.96 1.77 3.96 3.95 0 2.19-1.77 3.96-3.96 3.96z"/>
	<path class="s0" d="m23.47 8.73c-1.86 0-3.36-1.5-3.36-3.36 0-1.87 1.5-3.37 3.36-3.37 1.86 0 3.37 1.5 3.37 3.37 0 1.86-1.51 3.36-3.37 3.36z"/>
	<path class="s0" d="m14.45 43.56c-1.06 0-1.91-0.85-1.91-1.91 0-1.05 0.85-1.9 1.91-1.9 1.05 0 1.9 0.85 1.9 1.9 0 1.06-0.85 1.91-1.9 1.91z"/>
	<path class="s0" d="m32.53 43.56c-1.05 0-1.9-0.85-1.9-1.91 0-1.05 0.85-1.9 1.9-1.9 1.06 0 1.91 0.85 1.91 1.9 0 1.06-0.85 1.91-1.91 1.91z"/>
	<path class="s0" d="m23.47 45.02c-1.86 0-3.36-1.51-3.36-3.37 0-1.86 1.5-3.36 3.36-3.36 1.86 0 3.37 1.5 3.37 3.36 0 1.86-1.51 3.37-3.37 3.37z"/>
	<g id="Layer 1">
	</g>
</svg>